<svg xmlns="http://www.w3.org/2000/svg" viewBox="0 0 320 146"><title>logo-dev-life</title><rect x="0.27" y="0.25" width="319.45" height="145.75" rx="10.45" style="fill:#7a75bc"/><rect x="12" y="14.75" width="170" height="117" rx="9.29" style="fill:#bbe9f9"/><path d="M194.85,108.43a27.85,27.85,0,0,1-.63-4.59q-.21-2.93-.21-6.53c0-2.4,0-4.93.05-7.57s.09-5.23.16-7.73.08-4.84.05-7-.12-3.94-.26-5.33c-.07-1-.16-2.59-.26-4.65s-.23-4.37-.37-6.94-.29-5.29-.47-8.15-.29-5.59-.36-8.2-.11-5-.11-7.21a46,46,0,0,1,.21-5.06c1-.91,1.9-.68,2.56.67A20.17,20.17,0,0,1,196.73,36a85.83,85.83,0,0,1,.67,8.62c.11,3.21.16,6.23.16,9.09s0,5.26-.1,7.21-.11,3-.11,3q.53,9.81.68,19.37t1,19.27a9.51,9.51,0,0,1,1.1,4.24,7.68,7.68,0,0,1-.63,3.6,1.74,1.74,0,0,1-1.93,1.15C196.73,111.43,195.82,110.38,194.85,108.43Z" style="fill:#fff"/><path d="M205.6,107.49a24.38,24.38,0,0,1-.31-4.23q-.1-3.6-.16-8.72t.06-11.12q.09-6,.26-11.28t.42-9.14a29.11,29.11,0,0,1,.57-4.91,1.54,1.54,0,0,1,1.36,0,4.65,4.65,0,0,1,1.3.83,5,5,0,0,1,1,1.26,2.67,2.67,0,0,1,.41,1.25v46.06a2.25,2.25,0,0,1-.62,1.73,2.19,2.19,0,0,1-1.52.57,2.79,2.79,0,0,1-1.67-.57A3.05,3.05,0,0,1,205.6,107.49Z" style="fill:#fff"/><path d="M231.2,80.34a17.1,17.1,0,0,0-5.44.26A33.65,33.65,0,0,0,220.44,82a1.82,1.82,0,0,1-2-.53A5.22,5.22,0,0,1,217,79.24a4.25,4.25,0,0,1-.1-2.46c.2-.76.83-1.21,1.88-1.35.27,0,1,0,2.29.1s2.6.09,4,0a22.93,22.93,0,0,0,4-.41c1.22-.25,1.94-.68,2.15-1.31q-.1-4.39-.32-9.4t-.21-10.19q0-5.16.47-10.23a68.91,68.91,0,0,1,1.62-9.77,6.71,6.71,0,0,1,2.14-3.76q1.41-1.05,4.55-.31a13.42,13.42,0,0,1,5.22,2.56,32.28,32.28,0,0,1,5.07,4.75,35,35,0,0,1,4.07,5.8,15.65,15.65,0,0,1,2,5.79A2.12,2.12,0,0,1,255,51a2.93,2.93,0,0,1-2.25.73,3.34,3.34,0,0,1-2.35-1.61c-.73-1-1.09-2.74-1.09-5.17a2.25,2.25,0,0,0-.32-.79,3.42,3.42,0,0,0-.52-.78L241,35.94c-1.4-.55-2.46-.47-3.19.26a6.63,6.63,0,0,0-1.62,2.88,18.56,18.56,0,0,0-.68,3.76c-.1,1.32-.19,2.33-.26,3-.21,2.64-.4,5.05-.57,7.2s-.28,4.29-.32,6.37,0,4.22.16,6.38.38,4.56.73,7.2a9.4,9.4,0,0,0,3-.88q2.55-1,6.06-2.2t7.26-2.24a28.77,28.77,0,0,1,6.52-1.15c1.85-.07,3.17.29,4,1.09s.65,2.32-.47,4.55a1.9,1.9,0,0,1-1.88,1.09,12.18,12.18,0,0,1-2.19-.26c-.49.14-1.32.41-2.51.79s-2.42.8-3.71,1.25-2.52.87-3.7,1.25l-2.41.79c-.21.07-.64.17-1.3.31s-1.36.31-2.09.52-1.43.39-2.09.53a7.42,7.42,0,0,0-1.2.31,4.51,4.51,0,0,1-.68.16,2.31,2.31,0,0,0-.78.26,3.84,3.84,0,0,1-.94.31v29.67a1,1,0,0,1-.79,1,3.08,3.08,0,0,1-1.67,0,4.59,4.59,0,0,1-1.67-.94,2.19,2.19,0,0,1-.78-1.73Z" style="fill:#fff"/><path d="M287.08,109.17a14.66,14.66,0,0,1-6-4.29,17.36,17.36,0,0,1-3-5.74A29,29,0,0,1,277,92.45c-.14-2.36-.32-4.77-.52-7.2a24.54,24.54,0,0,1-4.71.36,21,21,0,0,1-4-.42,5.21,5.21,0,0,1-2.45-1,1,1,0,0,1-.16-1.46A6.37,6.37,0,0,1,268,81.07a40.15,40.15,0,0,1,6.79-1.57A7.1,7.1,0,0,0,278,77.93a11.29,11.29,0,0,0,1.36-3.6c.42-1.71.85-3.6,1.31-5.69s1-4.2,1.67-6.32a21.6,21.6,0,0,1,2.5-5.49,8.53,8.53,0,0,1,3.66-3.24q2.14-.93,5.27.42a6.17,6.17,0,0,1,.89.79q.59.57,1.2,1.2l1.21,1.2a6.61,6.61,0,0,1,.78.89,24,24,0,0,1-.63,8.67,19.52,19.52,0,0,1-2.82,6,19.32,19.32,0,0,1-4,4.13c-1.46,1.11-2.85,2.18-4.18,3.18a24.57,24.57,0,0,0-3.39,3.09A6,6,0,0,0,281.33,87c-.14,1.81-.2,3.47-.2,5a16.45,16.45,0,0,0,.52,4.23,11.65,11.65,0,0,0,1.77,3.76,14.58,14.58,0,0,0,3.66,3.45,5.21,5.21,0,0,0,4.39.63,20,20,0,0,0,5.32-2.2,48.84,48.84,0,0,0,5.33-3.55l4.49-3.39a21.8,21.8,0,0,1,2.72-1.83c.56-.28.56.14,0,1.25a65.28,65.28,0,0,1-3.45,6.9,23.2,23.2,0,0,1-4.7,5.85,13.76,13.76,0,0,1-6.21,3.18A12.88,12.88,0,0,1,287.08,109.17Zm-3.34-37.92-.42,2.09a13.1,13.1,0,0,0-.31,2.09.48.48,0,0,0,.36.1.53.53,0,0,0,.37-.1c.21-.14.52-.37.94-.68s.83-.63,1.25-.94.82-.63,1.2-.94.65-.54.79-.68a22.87,22.87,0,0,0,4.43-5.8,10.53,10.53,0,0,0,1.31-4.33,2.3,2.3,0,0,0-1.1-2.25,2.56,2.56,0,0,0-2.61.37,11,11,0,0,0-3.18,3.6A29.12,29.12,0,0,0,283.74,71.25Z" style="fill:#fff"/><path d="M209.21,41.84s-4.62-5.26-7.21-1.31c-2.86,4.37,7.82,10.67,7.21,11.47-.5-1.2,10.38-6.46,7.2-11.47C214.37,37.31,210.19,39.88,209.21,41.84Z" style="fill:#bbe9f9"/><path d="M154.59,62.51l2.17-5.28,18.35,17.58v6.68L157,99.1,154.59,94,171.18,78.2Z" style="fill:#fff"/><path d="M17.59,74.84,35.94,57.23l2.17,5.28L21.52,78.2,38.11,93.93,35.75,99.1,17.59,81.49Z" style="fill:#fff"/><path d="M61.19,43.49l8.58,1v52H62.16l-.52-4.39a12.73,12.73,0,0,1-4.11,4,10.5,10.5,0,0,1-5.48,1.44,10.53,10.53,0,0,1-9.57-5.26Q39.25,87,39.25,77.85a28.92,28.92,0,0,1,1.64-10.12,15.68,15.68,0,0,1,4.73-7,11.1,11.1,0,0,1,7.25-2.51A10.65,10.65,0,0,1,61.19,62ZM50,68.31q-1.81,3.12-1.81,9.58c0,4.49.54,7.73,1.64,9.72a5.14,5.14,0,0,0,4.73,3q3.8,0,6.63-4.84V68.83q-2.5-3.64-6-3.65A5.7,5.7,0,0,0,50,68.31Z" style="fill:#7a75bc"/><path d="M87.54,80.73q.36,5,2.75,7.44a8.2,8.2,0,0,0,6.13,2.42,13.21,13.21,0,0,0,4.55-.8,19,19,0,0,0,4.38-2.39l3.58,5.3a18.26,18.26,0,0,1-5.85,3.56,20.12,20.12,0,0,1-7.22,1.28,17,17,0,0,1-9.34-2.46,15.28,15.28,0,0,1-5.82-6.87,25.06,25.06,0,0,1-2-10.25A25.14,25.14,0,0,1,80.67,67.9a16.33,16.33,0,0,1,5.59-7.05,14.58,14.58,0,0,1,8.63-2.58,14.77,14.77,0,0,1,8.16,2.24A14.52,14.52,0,0,1,108.41,67,24.49,24.49,0,0,1,110.29,77c0,1.34-.05,2.57-.16,3.69Zm2.2-13.46c-1.31,1.65-2.08,4.16-2.29,7.53h14.49q-.06-4.81-1.83-7.41a5.89,5.89,0,0,0-5.19-2.59A6.29,6.29,0,0,0,89.74,67.27Z" style="fill:#7a75bc"/><path d="M141.66,59.32h8.74L138.57,96.49H128.5L116.6,59.32h9.23l7.83,29.76Z" style="fill:#7a75bc"/></svg>